<svg width="370" height="125" viewBox="0 0 370 125" fill="none" xmlns="http://www.w3.org/2000/svg">
<g filter="url(#filter0_ddd_1_430)">
<path d="M21.7227 88.625C25.5561 88.625 27.6006 90.5 27.6006 93.875C27.6006 97.375 25.4283 99.25 21.7227 99.25H18.2726V88.625H21.7227ZM21.7227 97.75C24.4061 97.75 25.9394 96.375 25.9394 93.875C25.9394 91.5 24.4061 90.125 21.7227 90.125H19.9338V97.75H21.7227Z" fill="#FEFFFF"/>
<path d="M31.5618 99.25V88.625H33.2229V99.25H31.5618Z" fill="#FEFFFF"/>
<path d="M47.2788 98C45.6177 99 44.0843 99.5 42.1676 99.5C39.1009 99.5 37.1841 97.5 37.1841 94C37.1841 90.625 39.1009 88.5 42.4231 88.5C43.8287 88.5 45.4899 88.75 46.7677 89.25L46.2566 90.625C45.1065 90.25 43.8287 90 42.5509 90C40.2509 90 38.8453 91.5 38.8453 94C38.8453 96.625 40.1231 98 42.2954 98C43.5732 98 44.7232 97.875 45.7454 97.125V95.25H42.0398V93.75H47.2788V98Z" fill="#FEFFFF"/>
<path d="M51.3678 99.25V88.625H53.0289V99.25H51.3678Z" fill="#FEFFFF"/>
<path d="M61.718 90.125V99.25H60.0569V90.125H56.2235V88.625H65.5515V90.125H61.718Z" fill="#FEFFFF"/>
<path d="M67.9793 99.25H66.1903L70.7904 88.625H72.9627L77.5628 99.25H75.7739L74.7516 96.75H69.0015L67.9793 99.25ZM72.3238 91C72.0682 90.5 71.9405 90 71.9405 89.75C71.8127 90.125 71.6849 90.5 71.5571 91L69.7682 95.25H74.1127L72.3238 91Z" fill="#FEFFFF"/>
<path d="M80.8851 99.25V88.625H82.5462V97.75H87.913V99.25H80.8851Z" fill="#FEFFFF"/>
<path d="M99.2855 99.25V88.625H100.947V97.75H106.313V99.25H99.2855Z" fill="#FEFFFF"/>
<path d="M109.764 99.25V88.625H111.425V99.25H109.764Z" fill="#FEFFFF"/>
<path d="M119.858 88.625C122.669 88.625 123.947 89.625 123.947 91.625C123.947 92.75 123.308 93.5 122.158 93.75C123.819 94.125 124.586 95.125 124.586 96.375C124.586 98.375 123.18 99.375 119.986 99.375H116.153V88.75H119.858V88.625ZM117.814 93H120.497C121.775 93 122.414 92.5 122.414 91.625C122.414 90.5 121.647 90.125 119.858 90.125H117.814V93ZM117.814 97.75H120.114C122.03 97.75 122.925 97.25 122.925 96.25C122.925 95.125 122.03 94.5 120.497 94.5H117.814V97.75Z" fill="#FEFFFF"/>
<path d="M137.236 99.25H135.447L132.636 95.875H130.081V99.25H128.419V88.625H132.508C135.447 88.625 136.981 90 136.981 92.375C136.981 94 135.959 95.25 134.297 95.75L137.236 99.25ZM132.508 94.375C134.297 94.375 135.32 93.625 135.32 92.25C135.32 90.875 134.297 90.125 132.508 90H130.081V94.25H132.508V94.375Z" fill="#FEFFFF"/>
<path d="M141.581 99.25H139.792L144.392 88.625H146.564L151.164 99.25H149.375L148.353 96.75H142.731L141.581 99.25ZM145.798 91C145.542 90.5 145.414 90 145.414 89.75C145.286 90.125 145.159 90.5 145.031 91L143.242 95.25H147.587L145.798 91Z" fill="#FEFFFF"/>
<path d="M163.176 99.25H161.387L158.576 95.875H156.02V99.25H154.359V88.625H158.448C161.387 88.625 162.92 90 162.92 92.375C162.92 94 161.898 95.25 160.237 95.75L163.176 99.25ZM158.448 94.375C160.237 94.375 161.259 93.625 161.259 92.25C161.259 90.875 160.237 90.125 158.448 90H156.02V94.25H158.448V94.375Z" fill="#FEFFFF"/>
<path d="M170.332 99.25H168.67V95.75L164.581 88.625H166.243L169.054 93.375C169.181 93.625 169.309 94 169.437 94.25C169.565 93.875 169.693 93.625 169.82 93.375L172.632 88.625H174.293L170.204 95.75V99.25H170.332Z" fill="#FEFFFF"/>
<path d="M194.61 93.875C194.61 97.375 192.693 99.375 189.371 99.375C186.049 99.375 184.132 97.375 184.132 93.875C184.132 90.375 186.049 88.375 189.371 88.375C192.693 88.375 194.61 90.375 194.61 93.875ZM192.821 93.875C192.821 91.25 191.543 89.875 189.243 89.875C186.943 89.875 185.793 91.25 185.793 93.875C185.793 96.5 187.071 97.875 189.243 97.875C191.543 97.875 192.821 96.5 192.821 93.875Z" fill="#FEFFFF"/>
<path d="M204.96 93.375V94.875H200.104V99.25H198.443V88.625H205.599V90.125H199.977V93.5H204.96V93.375Z" fill="#FEFFFF"/>
<path d="M220.422 90.125V99.25H218.76V90.125H214.927V88.625H224.255V90.125H220.422Z" fill="#FEFFFF"/>
<path d="M234.861 99.25V94.5H228.983V99.25H227.322V88.625H228.983V93.125H234.861V88.625H236.522V99.25H234.861Z" fill="#FEFFFF"/>
<path d="M241.378 99.25V88.625H248.789V90.125H243.039V93.25H248.022V94.75H243.039V97.875H248.917V99.375H241.378V99.25Z" fill="#FEFFFF"/>
<path d="M270 98.125C268.723 99 267.317 99.375 265.528 99.375C262.334 99.375 260.417 97.375 260.417 93.875C260.417 90.375 262.334 88.375 265.784 88.375C267.061 88.375 268.595 88.75 269.617 89.25L269.106 90.5C268.084 90.125 266.806 89.875 265.784 89.875C263.356 89.875 262.078 91.25 262.078 93.875C262.078 96.375 263.356 97.875 265.656 97.875C267.189 97.875 268.339 97.5 269.489 96.875L270 98.125Z" fill="#FEFFFF"/>
<path d="M274.473 99.25H272.684L277.284 88.625H279.456L284.056 99.25H282.267L281.245 96.75H275.623L274.473 99.25ZM278.817 91C278.562 90.5 278.434 90 278.434 89.75C278.306 90.125 278.178 90.5 278.051 91L276.262 95.25H280.606L278.817 91Z" fill="#FEFFFF"/>
<path d="M296.195 99.25H294.406L291.595 95.875H289.04V99.25H287.379V88.625H291.468C294.406 88.625 295.94 90 295.94 92.375C295.94 94 294.918 95.25 293.256 95.75L296.195 99.25ZM291.468 94.375C293.256 94.375 294.279 93.625 294.279 92.25C294.279 90.875 293.256 90.125 291.468 90H289.04V94.25H291.468V94.375Z" fill="#FEFFFF"/>
<path d="M299.773 99.25V88.625H301.434V99.25H299.773Z" fill="#FEFFFF"/>
<path d="M309.868 88.625C312.679 88.625 313.957 89.625 313.957 91.625C313.957 92.75 313.318 93.5 312.168 93.75C313.829 94.125 314.596 95.125 314.596 96.375C314.596 98.375 313.19 99.375 309.996 99.375H306.162V88.75H309.868V88.625ZM307.951 93H310.635C311.912 93 312.551 92.5 312.551 91.625C312.551 90.5 311.785 90.125 309.996 90.125H307.951V93ZM307.951 97.75H310.251C312.168 97.75 313.062 97.25 313.062 96.25C313.062 95.125 312.168 94.5 310.635 94.5H307.951V97.75Z" fill="#FEFFFF"/>
<path d="M322.263 88.625C325.074 88.625 326.352 89.625 326.352 91.625C326.352 92.75 325.713 93.5 324.563 93.75C326.224 94.125 326.991 95.125 326.991 96.375C326.991 98.375 325.585 99.375 322.39 99.375H318.557V88.75H322.263V88.625ZM320.218 93H322.902C324.179 93 324.818 92.5 324.818 91.625C324.818 90.5 324.052 90.125 322.263 90.125H320.218V93ZM320.218 97.75H322.518C324.435 97.75 325.329 97.25 325.329 96.25C325.329 95.125 324.435 94.5 322.902 94.5H320.218V97.75Z" fill="#FEFFFF"/>
<path d="M330.824 99.25V88.625H338.235V90.125H332.485V93.25H337.469V94.75H332.485V97.875H338.363V99.375H330.824V99.25Z" fill="#FEFFFF"/>
<path d="M343.219 99.25H341.43L346.03 88.625H348.202L352.802 99.25H351.013L349.991 96.75H344.369L343.219 99.25ZM347.563 91C347.308 90.5 347.18 90 347.18 89.75C347.052 90.125 346.924 90.5 346.797 91L345.008 95.25H349.352L347.563 91Z" fill="#FEFFFF"/>
<path d="M364.047 99.25L357.913 91.375V99.25H356.252V88.625H357.786L363.919 96.625V88.625H365.58V99.25H364.047Z" fill="#FEFFFF"/>
<path d="M140.559 75.25C157.143 75.25 170.587 62.0984 170.587 45.875C170.587 29.6516 157.143 16.5 140.559 16.5C123.974 16.5 110.53 29.6516 110.53 45.875C110.53 62.0984 123.974 75.25 140.559 75.25Z" fill="#FEFFFF"/>
<path d="M250.194 45.75C250.194 49.625 250.067 53.5 249.172 57.25C248.661 59.25 248.022 61 247 62.75C245.594 65 243.55 66.5 240.866 67.125C238.439 67.75 236.011 67.75 233.583 67.125C229.877 66.25 227.833 63.75 226.555 60.375C225.661 57.875 225.277 55.375 225.022 52.75C224.766 49 224.638 45.125 225.022 41.375C225.277 38.125 225.916 34.875 227.449 31.875C229.622 27.5 233.2 25.375 238.183 25.375C240.994 25.375 243.55 25.875 245.722 27.75C247.511 29.375 248.533 31.375 249.044 33.625C249.939 36.75 250.194 40 250.194 43.25C250.194 44.125 250.194 45 250.194 45.75ZM242.4 46.5C242.4 43.75 242.4 40.875 242.016 38.125C241.889 36.625 241.633 35 240.866 33.625C240.355 32.75 239.716 32.125 238.566 31.875C236.522 31.5 234.988 32.25 234.094 34.125C233.327 35.625 233.072 37.25 232.944 39C232.433 44.25 232.433 49.625 232.944 54.875C233.072 56.5 233.327 58.125 234.094 59.625C234.861 61 236.011 61.625 237.544 61.625C239.077 61.625 240.1 60.875 240.866 59.625C241.505 58.5 241.761 57.25 241.889 55.875C242.4 52.75 242.4 49.625 242.4 46.5Z" fill="white"/>
<path d="M271.023 52.875C273.45 53 275.751 53.25 278.178 53.375C278.051 55.5 277.923 57.625 277.412 59.75C277.156 60.875 276.645 62.125 276.006 63.125C274.856 65.125 273.067 66.5 270.895 67.125C268.467 67.875 265.911 67.875 263.484 67.5C259.906 66.875 257.606 64.625 256.2 61.375C255.05 58.75 254.667 56.125 254.411 53.375C254.028 49.375 254.028 45.375 254.411 41.375C254.667 38.25 255.306 35.25 256.711 32.375C259.011 27.625 262.845 25.375 268.211 25.5C271.15 25.625 273.706 26.375 275.623 28.625C277.028 30.25 277.795 32.125 278.178 34.25C278.562 36.125 278.689 38.125 278.689 40C278.689 40.375 278.562 40.5 278.178 40.5C276.006 40.625 273.834 40.875 271.534 41C271.406 40.25 271.406 39.375 271.406 38.625C271.278 37.125 271.15 35.75 270.767 34.25C270.256 32.875 269.489 31.75 267.828 31.625C266.167 31.5 264.889 32 263.995 33.375C263.1 34.75 262.717 36.375 262.589 38C261.822 43.75 261.95 49.5 262.461 55.25C262.589 56.75 262.972 58.375 263.739 59.75C264.378 61 265.528 61.75 267.061 61.75C268.467 61.75 269.489 61.125 270.128 59.875C271.023 58.25 271.15 56.5 271.278 54.625C271.023 54.125 270.895 53.5 271.023 52.875Z" fill="white"/>
<path d="M192.182 40.125C192.182 39.875 192.182 39.625 192.182 39.375C192.182 35.25 192.182 31 192.182 26.875C192.182 26.375 192.31 26.125 192.821 26.125C194.738 26.125 196.654 26.125 198.571 26.125C199.082 26.125 199.21 26.25 199.21 26.75C199.21 40 199.21 53.25 199.21 66.375C199.21 66.875 199.082 67 198.571 67C196.91 67 195.249 67 193.588 67C193.204 67 192.949 66.875 192.949 66.5C192.821 65.75 192.693 65 192.438 64C191.671 65.5 190.649 66.5 189.243 67.125C185.665 68.75 181.576 67.25 179.915 63.75C179.021 61.75 178.637 59.5 178.382 57.375C178.126 53.875 178.126 50.25 178.637 46.75C179.021 44.5 179.532 42.375 180.81 40.5C182.598 38 185.921 36.75 188.987 37.75C190.138 38.125 190.904 38.875 191.671 39.75C191.799 39.875 191.926 40.125 192.054 40.25C192.054 40.125 192.054 40.125 192.182 40.125ZM185.537 52.875C185.537 54.375 185.537 55.75 185.665 57.25C185.793 58.25 185.921 59.375 186.304 60.375C186.687 61.25 187.326 61.875 188.349 62C189.499 62.125 190.393 61.625 190.904 60.625C191.288 59.875 191.543 59.125 191.671 58.25C192.182 55.125 192.054 51.875 191.926 48.75C191.926 47.5 191.671 46.125 191.288 45C190.776 43.75 190.01 43.125 188.987 43.125C187.837 43.125 186.815 43.75 186.304 44.875C186.049 45.5 185.921 46.125 185.793 46.75C185.665 48.75 185.537 50.875 185.537 52.875Z" fill="white"/>
<path d="M211.605 26.125C211.605 37.625 211.605 49.125 211.605 60.625C213.394 60.625 215.183 60.625 217.099 60.625C218.888 60.625 220.549 60.625 222.338 60.625C222.849 60.625 222.977 60.75 222.977 61.25C222.977 63 222.977 64.75 222.977 66.5C222.977 67 222.849 67.125 222.338 67.125C216.46 67.125 210.71 67.125 204.832 67.125C204.193 67.125 204.066 67 204.066 66.375C204.066 59.625 204.066 52.875 204.066 46.125C204.066 39.75 204.066 33.5 204.066 27.125C204.066 26.125 203.938 26.25 204.96 26.25C207.26 26.125 209.432 26.125 211.605 26.125Z" fill="white"/>
<path d="M159.598 37.625C158.703 37.75 157.809 38 156.915 38.25C155.637 38.625 154.359 39.25 153.209 39.875C152.57 40.25 151.803 40.5 151.037 40.625C150.526 40.75 150.014 40.875 149.631 41.25C149.12 41.75 148.353 42 147.714 42.375C147.459 42.625 147.331 42.375 147.331 42.125C146.82 39.75 145.925 37.5 144.903 35.375C142.348 30.25 138.897 26 133.658 23.125C133.403 23 133.02 22.75 132.636 22.75C132.636 23.625 132.892 24.375 133.147 25.125C133.914 27.625 135.32 29.75 136.981 31.75C137.747 32.625 138.514 33.25 139.153 34.125C139.792 34.875 140.559 35.5 141.198 36.375C139.92 35.625 138.77 35 137.62 34.375C131.742 31.125 125.608 28.125 119.091 26C118.58 25.875 118.58 25.75 118.964 25.5C123.436 21 128.931 18.25 135.192 17.125C137.875 16.625 140.686 16.5 143.498 16.875C148.609 17.375 153.337 19.125 157.681 22C161.259 24.375 164.198 27.5 166.37 31.25C168.415 34.75 169.82 38.375 170.332 42.375C170.843 46.25 170.587 50.25 169.437 54C168.415 57.75 166.626 61.25 164.07 64.25C159.598 69.75 153.72 73.25 146.692 74.875C143.753 75.5 140.814 75.75 137.875 75.375C134.425 75 131.103 74.25 127.908 72.75C127.525 72.625 127.525 72.5 127.653 72.125C129.697 67.375 132.253 63 135.575 59C136.725 57.75 137.875 56.5 139.281 55.375C139.536 55.125 139.92 55 140.303 55C144.264 54.375 147.587 52.75 149.759 49.375C150.653 48 151.292 46.5 151.676 44.875C151.803 44.5 151.931 44.25 152.187 44.125C152.826 43.75 153.209 43.125 153.209 42.375C153.209 42.25 153.209 42.125 153.081 42C152.698 41.5 152.953 41.25 153.337 41C154.998 39.625 156.787 38.75 158.831 38.25C159.215 37.875 159.342 37.75 159.598 37.625C159.598 37.75 159.598 37.75 159.598 37.625Z" fill="#7FA13F"/>
<path d="M133.147 44.25C132.508 44.625 131.742 44.75 131.103 45.25C134.425 46.125 137.62 46.875 140.942 47.25C140.942 47.5 140.814 47.5 140.686 47.625C137.875 50.25 135.447 53.25 133.403 56.375C130.464 60.875 128.292 65.75 126.503 70.875C126.503 71 126.375 71.125 126.375 71.25C126.247 71.625 126.119 71.625 125.736 71.5C121.008 68.75 117.175 65.125 114.491 60.5C112.447 57 111.169 53.125 110.658 49.125C110.019 42.875 111.169 37 114.236 31.5C114.236 31.375 114.364 31.25 114.491 31.25C115.003 32 115.514 32.75 116.025 33.375C117.303 35 118.836 36.375 120.625 37.625C121.264 38 121.647 38.625 122.286 39.125C125.481 41.25 128.803 42.875 132.381 44.125C132.764 44.125 132.892 44.125 133.147 44.25Z" fill="#7FA13F"/>
<path d="M144.009 39.875C142.986 39.25 141.964 38.5 140.942 37.875C137.62 35.75 134.042 34 130.464 32.375C125.225 30 119.858 28 114.364 26.25C112.064 25.5 109.764 24.875 107.336 24.25C107.208 24.25 107.08 24.25 107.08 24.125C108.102 24.375 109.125 24.625 110.147 24.875C113.725 25.75 117.175 26.75 120.753 28C125.736 29.75 130.592 31.75 135.32 34.25C137.62 35.5 139.92 36.875 141.964 38.375C142.603 38.75 143.114 39.25 143.753 39.75C143.753 39.625 144.009 39.625 144.009 39.875Z" fill="#7FA13F"/>
<path d="M144.137 40C144.264 40 144.391 40.1255 144.391 40.2509C144.264 40.2509 144.137 40.1255 144.137 40Z" fill="#7FA13F"/>
<path d="M143.881 39.875C144.008 39.875 144.008 39.875 144.136 40C144.008 40 144.008 40 143.881 39.875Z" fill="#7FA13F"/>
</g>
<defs>
<filter id="filter0_ddd_1_430" x="-4" y="0" width="373.58" height="133" filterUnits="userSpaceOnUse" color-interpolation-filters="sRGB">
<feFlood flood-opacity="0" result="BackgroundImageFix"/>
<feColorMatrix in="SourceAlpha" type="matrix" values="0 0 0 0 0 0 0 0 0 0 0 0 0 0 0 0 0 0 127 0" result="hardAlpha"/>
<feOffset dy="4"/>
<feGaussianBlur stdDeviation="2"/>
<feComposite in2="hardAlpha" operator="out"/>
<feColorMatrix type="matrix" values="0 0 0 0 0 0 0 0 0 0 0 0 0 0 0 0 0 0 0.25 0"/>
<feBlend mode="normal" in2="BackgroundImageFix" result="effect1_dropShadow_1_430"/>
<feColorMatrix in="SourceAlpha" type="matrix" values="0 0 0 0 0 0 0 0 0 0 0 0 0 0 0 0 0 0 127 0" result="hardAlpha"/>
<feOffset dy="4"/>
<feGaussianBlur stdDeviation="2"/>
<feComposite in2="hardAlpha" operator="out"/>
<feColorMatrix type="matrix" values="0 0 0 0 0 0 0 0 0 0 0 0 0 0 0 0 0 0 0.25 0"/>
<feBlend mode="normal" in2="effect1_dropShadow_1_430" result="effect2_dropShadow_1_430"/>
<feColorMatrix in="SourceAlpha" type="matrix" values="0 0 0 0 0 0 0 0 0 0 0 0 0 0 0 0 0 0 127 0" result="hardAlpha"/>
<feOffset dy="4"/>
<feGaussianBlur stdDeviation="2"/>
<feComposite in2="hardAlpha" operator="out"/>
<feColorMatrix type="matrix" values="0 0 0 0 0 0 0 0 0 0 0 0 0 0 0 0 0 0 0.25 0"/>
<feBlend mode="normal" in2="effect2_dropShadow_1_430" result="effect3_dropShadow_1_430"/>
<feBlend mode="normal" in="SourceGraphic" in2="effect3_dropShadow_1_430" result="shape"/>
</filter>
</defs>
</svg>
